<mxfile><diagram id="uYg-Rw9YrQ7aDgiam1Iq" name="Page-1"><mxGraphModel dx="637" dy="475" grid="1" gridSize="10" guides="1" tooltips="1" connect="1" arrows="1" fold="1" page="1" pageScale="1" pageWidth="850" pageHeight="1100" math="0" shadow="0"><root><mxCell id="0"/><mxCell id="1" parent="0"/><mxCell id="3" value="&lt;font color=&quot;#000000&quot;&gt;&lt;b&gt;Elevador&lt;/b&gt;&lt;/font&gt;" style="rounded=0;whiteSpace=wrap;html=1;fillColor=#d0cee2;strokeColor=#56517e;" vertex="1" parent="1"><mxGeometry x="365" y="260" width="145" height="40" as="geometry"/></mxCell><mxCell id="5" value="" style="rounded=0;whiteSpace=wrap;html=1;fillColor=#d0cee2;strokeColor=#56517e;" vertex="1" parent="1"><mxGeometry x="365" y="300" width="145" height="10" as="geometry"/></mxCell><mxCell id="7" value="&lt;font color=&quot;#000000&quot;&gt;&lt;b&gt;-&amp;nbsp; andar_atual: int&lt;/b&gt;&lt;/font&gt;" style="rounded=0;whiteSpace=wrap;html=1;fillColor=#d0cee2;strokeColor=#56517e;" vertex="1" parent="1"><mxGeometry x="365" y="310" width="145" height="40" as="geometry"/></mxCell><mxCell id="8" value="&lt;font color=&quot;#000000&quot;&gt;&lt;b&gt;- total_andares: int&lt;/b&gt;&lt;/font&gt;" style="rounded=0;whiteSpace=wrap;html=1;fillColor=#d0cee2;strokeColor=#56517e;" vertex="1" parent="1"><mxGeometry x="365" y="350" width="145" height="40" as="geometry"/></mxCell><mxCell id="9" value="&lt;font color=&quot;#000000&quot;&gt;&lt;b&gt;- qtd_elevador: int&lt;/b&gt;&lt;/font&gt;" style="rounded=0;whiteSpace=wrap;html=1;fillColor=#d0cee2;strokeColor=#56517e;" vertex="1" parent="1"><mxGeometry x="365" y="390" width="145" height="40" as="geometry"/></mxCell><mxCell id="10" value="&lt;font color=&quot;#000000&quot;&gt;&lt;b&gt;- capacidade_elevador: int&lt;/b&gt;&lt;/font&gt;" style="rounded=0;whiteSpace=wrap;html=1;fillColor=#d0cee2;strokeColor=#56517e;" vertex="1" parent="1"><mxGeometry x="365" y="430" width="145" height="40" as="geometry"/></mxCell><mxCell id="11" value="" style="rounded=0;whiteSpace=wrap;html=1;fillColor=#d0cee2;strokeColor=#56517e;" vertex="1" parent="1"><mxGeometry x="365" y="470" width="145" height="10" as="geometry"/></mxCell><mxCell id="12" value="&lt;font color=&quot;#000000&quot;&gt;&lt;b&gt;+ Status ()&lt;/b&gt;&lt;/font&gt;" style="rounded=0;whiteSpace=wrap;html=1;fillColor=#d0cee2;strokeColor=#56517e;" vertex="1" parent="1"><mxGeometry x="365" y="480" width="145" height="40" as="geometry"/></mxCell><mxCell id="13" value="&lt;font color=&quot;#000000&quot;&gt;&lt;b&gt;+ Entrar ()&lt;/b&gt;&lt;/font&gt;" style="rounded=0;whiteSpace=wrap;html=1;fillColor=#d0cee2;strokeColor=#56517e;" vertex="1" parent="1"><mxGeometry x="365" y="520" width="145" height="40" as="geometry"/></mxCell><mxCell id="14" value="&lt;font color=&quot;#000000&quot;&gt;&lt;b&gt;+ Sair ()&lt;/b&gt;&lt;/font&gt;" style="rounded=0;whiteSpace=wrap;html=1;fillColor=#d0cee2;strokeColor=#56517e;" vertex="1" parent="1"><mxGeometry x="365" y="560" width="145" height="40" as="geometry"/></mxCell><mxCell id="16" value="&lt;font color=&quot;#000000&quot;&gt;&lt;b&gt;+ Subir ()&lt;/b&gt;&lt;/font&gt;" style="rounded=0;whiteSpace=wrap;html=1;fillColor=#d0cee2;strokeColor=#56517e;" vertex="1" parent="1"><mxGeometry x="365" y="600" width="145" height="40" as="geometry"/></mxCell><mxCell id="17" value="&lt;font color=&quot;#000000&quot;&gt;&lt;b&gt;+ Descer ()&lt;/b&gt;&lt;/font&gt;" style="rounded=0;whiteSpace=wrap;html=1;fillColor=#d0cee2;strokeColor=#56517e;" vertex="1" parent="1"><mxGeometry x="365" y="640" width="145" height="40" as="geometry"/></mxCell></root></mxGraphModel></diagram></mxfile>